<?xml version="1.0" encoding="iso-8859-1"?>
<!-- Generator: Adobe Illustrator 19.0.0, SVG Export Plug-In . SVG Version: 6.00 Build 0)  -->
<svg version="1.1" id="Layer_1" xmlns="http://www.w3.org/2000/svg" xmlns:xlink="http://www.w3.org/1999/xlink" x="0px" y="0px"
	 viewBox="0 0 512 512" style="enable-background:new 0 0 512 512;" xml:space="preserve">
<g>
	<g>
		<path d="M271.515,116.395c-12.853,0-23.273,10.42-23.273,23.273v108.575h-62.031c-12.853,0-23.273,10.42-23.273,23.273
			c0,12.853,10.42,23.273,23.273,23.273h85.304c12.853,0,23.273-10.42,23.273-23.273V139.667
			C294.788,126.813,284.368,116.395,271.515,116.395z"/>
	</g>
</g>
<g>
	<g>
		<path d="M256.002,0C114.842,0,0,114.842,0,256s114.842,256,256.002,256C397.158,512,512,397.158,512,256S397.158,0,256.002,0z
			 M256.002,465.455c-115.495,0-209.456-93.961-209.456-209.455S140.507,46.545,256.002,46.545
			c115.492,0,209.453,93.961,209.453,209.455S371.493,465.455,256.002,465.455z"/>
	</g>
</g>
<g>
</g>
<g>
</g>
<g>
</g>
<g>
</g>
<g>
</g>
<g>
</g>
<g>
</g>
<g>
</g>
<g>
</g>
<g>
</g>
<g>
</g>
<g>
</g>
<g>
</g>
<g>
</g>
<g>
</g>
</svg>
