<svg xmlns="http://www.w3.org/2000/svg" width="24" height="24" viewBox="0 0 24 24"><defs><style>.a{fill:#707070;fill-rule:evenodd;}</style></defs><path class="a" d="M31.706,29.6s0-18,0-18-7.506,0-7.506,0a1.5,1.5,0,1,1,0-3h7.511a3.007,3.007,0,0,1,2.994,3v18a2.994,2.994,0,0,1-2.994,3H24.195a1.5,1.5,0,1,1,0-3m7.511,0M15.571,22.1l3.718,3.443a1.484,1.484,0,0,1,0,2.123,1.531,1.531,0,0,1-2.147,0L11.37,22.193A2.2,2.2,0,0,1,10.7,20.6a2.224,2.224,0,0,1,.665-1.591l5.772-5.472a1.537,1.537,0,0,1,2.152,0,1.492,1.492,0,0,1,0,2.123L15.571,19.1h8.624a1.5,1.5,0,1,1,0,3l-8.624,0Z" transform="translate(-10.7 -8.6)"/></svg>